<svg width="80" height="129" viewBox="0 0 80 129" fill="none" xmlns="http://www.w3.org/2000/svg">
<g clip-path="url(#clip0_1022_9557)">
<path d="M24.5456 68H20.5194V86.7275H32.5975V82.7063H24.5456V68Z" fill="#1E1E1E"/>
<path d="M45.9488 83.4031C45.8275 83.2124 45.7669 82.9443 45.7669 82.5981V78.5718C45.7669 77.4287 45.5244 76.4418 45.0394 75.6106C44.5544 74.7793 43.8619 74.1431 42.9613 73.7012C42.0606 73.2593 40.9869 73.0387 39.7406 73.0387C38.5975 73.0387 37.5975 73.2337 36.7406 73.6231C35.8838 74.0124 35.195 74.5668 34.6756 75.2856C34.1563 76.0043 33.8444 76.8568 33.7406 77.8443H37.4031C37.4375 77.2556 37.6756 76.7881 38.1175 76.4418C38.5588 76.0956 39.1 75.9224 39.7406 75.9224C40.3813 75.9224 40.9313 76.0699 41.3381 76.3637C41.745 76.6581 41.9488 77.0131 41.9488 77.4287C41.9488 77.7062 41.8663 77.9268 41.7019 78.0912C41.5375 78.2556 41.2994 78.3637 40.9875 78.4156L38.4938 78.7531C36.9525 78.9606 35.775 79.4243 34.9613 80.1424C34.1469 80.8612 33.7406 81.8181 33.7406 83.0124C33.7406 83.7399 33.9438 84.4068 34.3513 85.0124C34.7581 85.6187 35.3206 86.0906 36.0394 86.4281C36.7575 86.7656 37.5756 86.9343 38.4938 86.9343C39.4806 86.9343 40.3338 86.7787 41.0525 86.4668C41.7706 86.1549 42.2688 85.7224 42.5463 85.1681C42.65 85.7224 42.94 86.1512 43.4163 86.4537C43.8925 86.7562 44.4769 86.9081 45.1694 86.9081C45.7581 86.9081 46.3725 86.8474 47.0138 86.7262V83.6349C46.8581 83.6524 46.7019 83.6699 46.5463 83.6868C46.2688 83.6868 46.07 83.5918 45.9488 83.4012V83.4031ZM42.0781 81.0393C42.0781 81.9056 41.8138 82.6368 41.2856 83.2343C40.7575 83.8318 40.0519 84.1306 39.1688 84.1306C38.6494 84.1306 38.2375 84.0049 37.935 83.7537C37.6319 83.5031 37.4806 83.1868 37.4806 82.8056C37.4806 82.3899 37.6238 82.0437 37.9094 81.7668C38.195 81.4899 38.6063 81.3168 39.1431 81.2474L42.0781 80.7537V81.0393Z" fill="#1E1E1E"/>
<path d="M53.0137 69.325H49.1956V73.2468H47.0137V76.39H49.1956V82.2081C49.1956 83.7493 49.6631 84.9225 50.5981 85.7275C51.5331 86.5325 52.7625 86.9349 54.2862 86.9349C54.9444 86.9349 55.5244 86.8743 56.0262 86.7531V83.5062C55.5756 83.6275 55.1775 83.6881 54.8312 83.6881C54.2944 83.6881 53.8575 83.515 53.5194 83.1687C53.1819 82.8225 53.0131 82.355 53.0131 81.7662V76.3893H56.0262V73.2462H53.0131L53.0137 69.325Z" fill="#1E1E1E"/>
<path d="M67.0906 74.0263C66.0687 73.3682 64.8131 73.0394 63.3244 73.0394C61.8356 73.0394 60.64 73.3732 59.6362 74.0394C58.6319 74.7063 57.8912 75.5676 57.4156 76.6238C56.9394 77.6801 56.7012 78.7969 56.7012 79.9744C56.7012 81.1519 56.9612 82.2688 57.4806 83.3251C58 84.3813 58.7794 85.2469 59.8181 85.9226C60.8569 86.5982 62.1125 86.9357 63.5844 86.9357C64.7444 86.9357 65.7831 86.7494 66.7012 86.3769C67.6187 86.0044 68.3675 85.4638 68.9481 84.7538C69.5281 84.0438 69.8875 83.2044 70.0262 82.2344H66.2337C66.095 82.7194 65.7962 83.0963 65.3375 83.3644C64.8787 83.6332 64.3287 83.7669 63.6881 83.7669C62.6662 83.7669 61.8569 83.4338 61.2594 82.7669C60.8525 82.3132 60.5844 81.7288 60.455 81.0138H70.0256C70.06 80.5463 70.0775 80.1138 70.0775 79.7151C70.0944 78.6069 69.8569 77.5463 69.3631 76.5332C68.8694 75.5201 68.1119 74.6845 67.0906 74.0263ZM60.5394 78.2601C60.5881 78.0582 60.645 77.8669 60.7137 77.6888C60.9475 77.0826 61.285 76.6238 61.7269 76.3119C62.1687 76.0001 62.7012 75.8444 63.3244 75.8444C63.8606 75.8444 64.32 75.9482 64.7012 76.1563C65.0819 76.3638 65.385 76.6501 65.6106 77.0132C65.8356 77.3769 65.9656 77.7926 66 78.2601H60.5394Z" fill="#1E1E1E"/>
<path d="M79.2206 73.0387C78.4063 73.0387 77.6144 73.2812 76.8438 73.7662C76.0731 74.2512 75.5319 74.8568 75.2206 75.5843V73.2468H71.4281V86.7274H75.2206V81.8443C75.2206 80.6324 75.385 79.6324 75.7144 78.8443C76.0431 78.0568 76.4719 77.4849 77 77.1299C77.5281 76.7749 78.1125 76.5974 78.7531 76.5974C79.1688 76.5974 79.5844 76.6406 80 76.7274V73.0912C79.8094 73.0568 79.5494 73.0387 79.2206 73.0387Z" fill="#1E1E1E"/>
<path d="M5.69375 77.5094L8.54062 74.6625L5.69375 71.8157L2.84687 74.6625L0 77.5094L5.69375 83.2032L8.54062 80.3563L5.69375 77.5094Z" fill="#00C9FF"/>
<path d="M11.3875 71.8157L8.54065 74.6625L11.3875 77.5094L8.54065 80.3563L11.3875 83.2032L17.0812 77.5094L11.3875 71.8157Z" fill="#00C9FF"/>
<path d="M20.5525 56.2612H21.6287V64.74H26.3931V65.7244H20.5525V56.2612Z" fill="#1E1E1E"/>
<path d="M26.95 56.2612H28.1444V57.6394H26.95V56.2612ZM27.0419 58.9125H28.0525V65.7244H27.0419V58.9125Z" fill="#1E1E1E"/>
<path d="M29.4225 58.9125H30.4331V60.2644C30.945 59.3587 31.8112 58.8075 32.8219 58.8075C34.2262 58.8075 35.2369 59.7525 35.2369 61.1962V65.7244H34.2262V61.3537C34.2262 60.4087 33.6225 59.7262 32.625 59.7262C31.3125 59.7262 30.4331 60.8812 30.4331 62.7319V65.7244H29.4225V58.9125Z" fill="#1E1E1E"/>
<path d="M36.5695 56.1562H37.5801V61.8656L40.7957 58.9125H42.2526L39.3388 61.5506L42.4888 65.7244H41.2026L38.617 62.2069L37.5801 63.1256V65.7244H36.5695V56.1562Z" fill="#1E1E1E"/>
<path d="M45.7825 56.2612H46.9769V57.6394H45.7825V56.2612ZM45.8744 58.9125H46.885V65.7244H45.8744V58.9125Z" fill="#1E1E1E"/>
<path d="M48.255 58.9125H49.2656V60.2644C49.7775 59.3587 50.6438 58.8075 51.6544 58.8075C53.0588 58.8075 54.0694 59.7525 54.0694 61.1962V65.7244H53.0588V61.3537C53.0588 60.4087 52.455 59.7262 51.4575 59.7262C50.145 59.7262 49.2656 60.8812 49.2656 62.7319V65.7244H48.255V58.9125Z" fill="#1E1E1E"/>
<path d="M58.545 56.2612H61.905C63.7294 56.2612 64.7794 57.1144 64.7794 58.6894C64.7794 59.5294 64.32 60.2119 63.5062 60.54C64.5694 60.9075 65.1731 61.7606 65.1731 62.9812C65.1731 64.7662 64.0706 65.7244 62.115 65.7244H58.545V56.2612ZM63.6637 58.7156C63.6637 57.7444 63.0206 57.2062 61.8525 57.2062H59.6212V60.1987H61.8525C63.0337 60.1987 63.6637 59.6737 63.6637 58.7156ZM64.0706 62.955C64.0706 61.8 63.3094 61.17 61.8919 61.17H59.6212V64.7531H61.8919C63.3094 64.7531 64.0706 64.1231 64.0706 62.955Z" fill="#1E1E1E"/>
<path d="M66.1694 56.2612H67.3637V57.6394H66.1694V56.2612ZM66.2613 58.9125H67.2719V65.7244H66.2613V58.9125Z" fill="#1E1E1E"/>
<path d="M68.1981 62.3119C68.1981 60.2775 69.5762 58.8075 71.5187 58.8075C73.4612 58.8075 74.8525 60.2644 74.8525 62.3119C74.8525 64.3594 73.4481 65.8294 71.5187 65.8294C69.5894 65.8294 68.1981 64.3594 68.1981 62.3119ZM73.8162 62.3119C73.8162 60.7894 72.8581 59.7131 71.5194 59.7131C70.1806 59.7131 69.2487 60.8025 69.2487 62.3119C69.2487 63.8212 70.1544 64.9237 71.5194 64.9237C72.8844 64.9237 73.8162 63.8344 73.8162 62.3119Z" fill="#1E1E1E"/>
<path d="M24.5456 34H20.5194V52.7275H32.5975V48.7063H24.5456V34Z" fill="#1E1E1E"/>
<path d="M45.9488 49.4031C45.8275 49.2124 45.7669 48.9443 45.7669 48.5981V44.5718C45.7669 43.4287 45.5244 42.4418 45.0394 41.6106C44.5544 40.7793 43.8619 40.1431 42.9613 39.7012C42.0606 39.2593 40.9869 39.0387 39.7406 39.0387C38.5975 39.0387 37.5975 39.2337 36.7406 39.6231C35.8838 40.0124 35.195 40.5668 34.6756 41.2856C34.1563 42.0043 33.8444 42.8568 33.7406 43.8443H37.4031C37.4375 43.2556 37.6756 42.7881 38.1175 42.4418C38.5588 42.0956 39.1 41.9224 39.7406 41.9224C40.3813 41.9224 40.9313 42.0699 41.3381 42.3637C41.745 42.6581 41.9488 43.0131 41.9488 43.4287C41.9488 43.7062 41.8663 43.9268 41.7019 44.0912C41.5375 44.2556 41.2994 44.3637 40.9875 44.4156L38.4938 44.7531C36.9525 44.9606 35.775 45.4243 34.9613 46.1424C34.1469 46.8612 33.7406 47.8181 33.7406 49.0124C33.7406 49.7399 33.9438 50.4068 34.3513 51.0124C34.7581 51.6187 35.3206 52.0906 36.0394 52.4281C36.7575 52.7656 37.5756 52.9343 38.4938 52.9343C39.4806 52.9343 40.3338 52.7787 41.0525 52.4668C41.7706 52.1549 42.2688 51.7224 42.5463 51.1681C42.65 51.7224 42.94 52.1512 43.4163 52.4537C43.8925 52.7562 44.4769 52.9081 45.1694 52.9081C45.7581 52.9081 46.3725 52.8474 47.0138 52.7262V49.6349C46.8581 49.6524 46.7019 49.6699 46.5463 49.6868C46.2688 49.6868 46.07 49.5918 45.9488 49.4012V49.4031ZM42.0781 47.0393C42.0781 47.9056 41.8138 48.6368 41.2856 49.2343C40.7575 49.8318 40.0519 50.1306 39.1688 50.1306C38.6494 50.1306 38.2375 50.0049 37.935 49.7537C37.6319 49.5031 37.4806 49.1868 37.4806 48.8056C37.4806 48.3899 37.6238 48.0437 37.9094 47.7668C38.195 47.4899 38.6063 47.3168 39.1431 47.2474L42.0781 46.7537V47.0393Z" fill="#1E1E1E"/>
<path d="M53.0137 35.325H49.1956V39.2468H47.0137V42.39H49.1956V48.2081C49.1956 49.7493 49.6631 50.9225 50.5981 51.7275C51.5331 52.5325 52.7625 52.9349 54.2862 52.9349C54.9444 52.9349 55.5244 52.8743 56.0262 52.7531V49.5062C55.5756 49.6275 55.1775 49.6881 54.8312 49.6881C54.2944 49.6881 53.8575 49.515 53.5194 49.1687C53.1819 48.8225 53.0131 48.355 53.0131 47.7662V42.3893H56.0262V39.2462H53.0131L53.0137 35.325Z" fill="#1E1E1E"/>
<path d="M67.0906 40.0263C66.0687 39.3682 64.8131 39.0394 63.3244 39.0394C61.8356 39.0394 60.64 39.3732 59.6362 40.0394C58.6319 40.7063 57.8912 41.5676 57.4156 42.6238C56.9394 43.6801 56.7012 44.7969 56.7012 45.9744C56.7012 47.1519 56.9612 48.2688 57.4806 49.3251C58 50.3813 58.7794 51.2469 59.8181 51.9226C60.8569 52.5982 62.1125 52.9357 63.5844 52.9357C64.7444 52.9357 65.7831 52.7494 66.7012 52.3769C67.6187 52.0044 68.3675 51.4638 68.9481 50.7538C69.5281 50.0438 69.8875 49.2044 70.0262 48.2344H66.2337C66.095 48.7194 65.7962 49.0963 65.3375 49.3644C64.8787 49.6332 64.3287 49.7669 63.6881 49.7669C62.6662 49.7669 61.8569 49.4338 61.2594 48.7669C60.8525 48.3132 60.5844 47.7288 60.455 47.0138H70.0256C70.06 46.5463 70.0775 46.1138 70.0775 45.7151C70.0944 44.6069 69.8569 43.5463 69.3631 42.5332C68.8694 41.5201 68.1119 40.6845 67.0906 40.0263ZM60.5394 44.2601C60.5881 44.0582 60.645 43.8669 60.7137 43.6888C60.9475 43.0826 61.285 42.6238 61.7269 42.3119C62.1681 42.0001 62.7012 41.8444 63.3244 41.8444C63.8606 41.8444 64.32 41.9482 64.7012 42.1563C65.0819 42.3638 65.385 42.6501 65.6106 43.0132C65.8356 43.3769 65.9656 43.7926 66 44.2601H60.5394Z" fill="#1E1E1E"/>
<path d="M79.2206 39.0387C78.4063 39.0387 77.6144 39.2812 76.8438 39.7662C76.0731 40.2512 75.5319 40.8568 75.2206 41.5843V39.2468H71.4281V52.7274H75.2206V47.8443C75.2206 46.6324 75.385 45.6324 75.7144 44.8443C76.0431 44.0568 76.4719 43.4849 77 43.1299C77.5281 42.7749 78.1125 42.5974 78.7531 42.5974C79.1688 42.5974 79.5844 42.6406 80 42.7274V39.0912C79.8094 39.0568 79.5494 39.0387 79.2206 39.0387Z" fill="#1E1E1E"/>
<path d="M5.69375 43.5719L8.54062 40.725L5.69375 37.8782L2.84687 40.725L0 43.5719L5.69375 49.2657L8.54062 46.4188L5.69375 43.5719Z" fill="#00CAFF"/>
<path d="M11.3875 37.8782L8.54065 40.725L11.3875 43.5719L8.54065 46.4188L11.3875 49.2657L17.0812 43.5719L11.3875 37.8782Z" fill="#00CAFF"/>
<path d="M20.5231 28.745H21.6125C21.7044 29.9656 22.7675 30.8581 24.1194 30.8581C25.4713 30.8581 26.39 30.2019 26.39 29.2044C26.39 28.3119 25.7731 27.8263 24.9331 27.5769L23.1088 27.0388C21.9144 26.6975 20.9038 26.0938 20.9038 24.5975C20.9038 23.1012 22.19 22.1562 24.0669 22.1562C25.9438 22.1562 27.1644 23.1275 27.3219 24.7419H26.2325C26.0619 23.7706 25.2875 23.1275 24.0669 23.1275C22.7806 23.1275 22.0194 23.6788 22.0194 24.5975C22.0194 25.3981 22.5969 25.7919 23.4106 26.0281L25.2481 26.5663C26.495 26.9206 27.4925 27.5769 27.4925 29.2044C27.4925 30.8319 26.1538 31.8294 24.1194 31.8294C22.2425 31.8294 20.6938 30.6613 20.5231 28.745Z" fill="#1E1E1E"/>
<path d="M28.0831 28.3119C28.0831 26.2775 29.4613 24.8075 31.4038 24.8075C33.3463 24.8075 34.7375 26.2644 34.7375 28.3119C34.7375 30.3594 33.3331 31.8294 31.4038 31.8294C29.4744 31.8294 28.0831 30.3594 28.0831 28.3119ZM33.7006 28.3119C33.7006 26.7894 32.7425 25.7131 31.4038 25.7131C30.065 25.7131 29.1331 26.8025 29.1331 28.3119C29.1331 29.8212 30.0388 30.9237 31.4038 30.9237C32.7688 30.9237 33.7006 29.8344 33.7006 28.3119Z" fill="#1E1E1E"/>
<path d="M35.3112 28.3119C35.3112 26.2119 36.6369 24.8075 38.6056 24.8075C40.1019 24.8075 41.2438 25.6606 41.4931 27.2619H40.5088C40.3513 26.33 39.6031 25.7131 38.6188 25.7131C37.2406 25.7131 36.3613 26.75 36.3613 28.3119C36.3613 29.8737 37.2538 30.9237 38.6188 30.9237C39.6031 30.9237 40.3381 30.3725 40.5219 29.3094H41.5194C41.2175 31.0287 40.0888 31.8294 38.6056 31.8294C36.6369 31.8294 35.3112 30.425 35.3112 28.3119Z" fill="#1E1E1E"/>
<path d="M42.3325 22.2612H43.5269V23.6394H42.3325V22.2612ZM42.4244 24.9125H43.435V31.7244H42.4244V24.9125Z" fill="#1E1E1E"/>
<path d="M44.4106 29.9C44.4106 28.7319 45.2506 28.01 46.6944 27.8262L48.3219 27.6162C48.7681 27.5506 48.9912 27.3537 48.9912 26.9862C48.9912 26.2381 48.3612 25.6869 47.285 25.6869C46.3006 25.6869 45.6181 26.1594 45.5394 27.0519H44.5025C44.6469 25.6869 45.71 24.8075 47.285 24.8075C48.86 24.8075 50.0019 25.7656 50.0019 27.0781V30.3725C50.0019 30.8187 50.2119 30.8975 50.4875 30.8975C50.5925 30.8975 50.6975 30.8712 50.6975 30.8712V31.7244C50.6975 31.7244 50.4744 31.79 50.2512 31.79C49.5556 31.79 49.0569 31.4356 49.0437 30.5562C48.6762 31.3306 47.7444 31.8294 46.7075 31.8294C45.3556 31.8294 44.4106 31.0812 44.4106 29.9ZM49.0044 28.64V28.2987L46.8256 28.64C45.92 28.7844 45.4475 29.1781 45.4475 29.8869C45.4475 30.5562 46.025 30.9631 46.8256 30.9631C48.2037 30.9631 49.0044 30.0837 49.0044 28.64Z" fill="#1E1E1E"/>
<path d="M51.4744 22.1562H52.485V31.7244H51.4744V22.1562Z" fill="#1E1E1E"/>
<path d="M24.5456 0H20.5194V18.7275H32.5975V14.7063H24.5456V0Z" fill="#1E1E1E"/>
<path d="M45.9488 15.4031C45.8275 15.2124 45.7669 14.9443 45.7669 14.5981V10.5718C45.7669 9.4287 45.5244 8.44182 45.0394 7.61057C44.5544 6.77932 43.8619 6.14307 42.9613 5.7012C42.0606 5.25932 40.9869 5.0387 39.7406 5.0387C38.5975 5.0387 37.5975 5.2337 36.7406 5.62307C35.8838 6.01245 35.195 6.56682 34.6756 7.28557C34.1563 8.00432 33.8444 8.85682 33.7406 9.84432H37.4031C37.4375 9.25557 37.6756 8.78807 38.1175 8.44182C38.5588 8.09557 39.1 7.92245 39.7406 7.92245C40.3813 7.92245 40.9313 8.06995 41.3381 8.3637C41.745 8.65807 41.9488 9.01307 41.9488 9.4287C41.9488 9.7062 41.8663 9.92682 41.7019 10.0912C41.5375 10.2556 41.2994 10.3637 40.9875 10.4156L38.4938 10.7531C36.9525 10.9606 35.775 11.4243 34.9613 12.1424C34.1469 12.8612 33.7406 13.8181 33.7406 15.0124C33.7406 15.7399 33.9438 16.4068 34.3513 17.0124C34.7581 17.6187 35.3206 18.0906 36.0394 18.4281C36.7575 18.7656 37.5756 18.9343 38.4938 18.9343C39.4806 18.9343 40.3338 18.7787 41.0525 18.4668C41.7706 18.1549 42.2688 17.7224 42.5463 17.1681C42.65 17.7224 42.94 18.1512 43.4163 18.4537C43.8925 18.7562 44.4769 18.9081 45.1694 18.9081C45.7581 18.9081 46.3725 18.8474 47.0138 18.7262V15.6349C46.8581 15.6524 46.7019 15.6699 46.5463 15.6868C46.2688 15.6868 46.07 15.5918 45.9488 15.4012V15.4031ZM42.0781 13.0393C42.0781 13.9056 41.8138 14.6368 41.2856 15.2343C40.7575 15.8318 40.0519 16.1306 39.1688 16.1306C38.6494 16.1306 38.2375 16.0049 37.935 15.7537C37.6319 15.5031 37.4806 15.1868 37.4806 14.8056C37.4806 14.3899 37.6238 14.0437 37.9094 13.7668C38.195 13.4899 38.6063 13.3168 39.1431 13.2474L42.0781 12.7537V13.0393Z" fill="#1E1E1E"/>
<path d="M53.0137 1.32495H49.1956V5.24683H47.0137V8.38995H49.1956V14.2081C49.1956 15.7493 49.6631 16.9225 50.5981 17.7275C51.5331 18.5325 52.7625 18.9349 54.2862 18.9349C54.9444 18.9349 55.5244 18.8743 56.0262 18.7531V15.5062C55.5756 15.6275 55.1775 15.6881 54.8312 15.6881C54.2944 15.6881 53.8575 15.515 53.5194 15.1687C53.1819 14.8225 53.0131 14.355 53.0131 13.7662V8.38933H56.0262V5.2462H53.0131L53.0137 1.32495Z" fill="#1E1E1E"/>
<path d="M67.0906 6.0263C66.0687 5.36818 64.8131 5.03943 63.3244 5.03943C61.8356 5.03943 60.64 5.37318 59.6362 6.03943C58.6319 6.7063 57.8912 7.56755 57.4156 8.6238C56.9394 9.68005 56.7012 10.7969 56.7012 11.9744C56.7012 13.1519 56.9612 14.2688 57.4806 15.3251C58 16.3813 58.7794 17.2469 59.8181 17.9226C60.8569 18.5982 62.1125 18.9357 63.5844 18.9357C64.7444 18.9357 65.7831 18.7494 66.7012 18.3769C67.6187 18.0044 68.3675 17.4638 68.9481 16.7538C69.5281 16.0438 69.8875 15.2044 70.0262 14.2344H66.2337C66.095 14.7194 65.7962 15.0963 65.3375 15.3644C64.8787 15.6332 64.3287 15.7669 63.6881 15.7669C62.6662 15.7669 61.8569 15.4338 61.2594 14.7669C60.8525 14.3132 60.5844 13.7288 60.455 13.0138H70.0256C70.06 12.5463 70.0775 12.1138 70.0775 11.7151C70.0944 10.6069 69.8569 9.5463 69.3631 8.53318C68.8694 7.52005 68.1119 6.68442 67.0906 6.0263ZM60.5394 10.2601C60.5881 10.0582 60.645 9.86693 60.7137 9.6888C60.9475 9.08255 61.285 8.6238 61.7269 8.31193C62.1681 8.00005 62.7012 7.84443 63.3244 7.84443C63.8606 7.84443 64.32 7.94818 64.7012 8.1563C65.0819 8.3638 65.385 8.65005 65.6106 9.01318C65.8356 9.37693 65.9656 9.79255 66 10.2601H60.5394Z" fill="#1E1E1E"/>
<path d="M79.2206 5.0387C78.4063 5.0387 77.6144 5.2812 76.8438 5.7662C76.0731 6.2512 75.5319 6.85682 75.2206 7.58432V5.24682H71.4281V18.7274H75.2206V13.8443C75.2206 12.6324 75.385 11.6324 75.7144 10.8443C76.0431 10.0568 76.4719 9.48495 77 9.12995C77.5281 8.77495 78.1125 8.59745 78.7531 8.59745C79.1688 8.59745 79.5844 8.64057 80 8.72745V5.0912C79.8094 5.05682 79.5494 5.0387 79.2206 5.0387Z" fill="#1E1E1E"/>
<path d="M5.69375 9.57192L8.54062 6.72505L5.69375 3.87817L2.84687 6.72505L0 9.57192L5.69375 15.2657L8.54062 12.4188L5.69375 9.57192Z" fill="#00CAFF"/>
<path d="M11.3875 3.87817L8.54065 6.72505L11.3875 9.57192L8.54065 12.4188L11.3875 15.2657L17.0812 9.57192L11.3875 3.87817Z" fill="#00CAFF"/>
<path fill-rule="evenodd" clip-rule="evenodd" d="M20 93.8332L13.3333 100.5L20 107.167L13.3333 113.834L0 100.5L6.66667 93.8332L13.3333 87.1665L20 93.8332ZM20 93.8332L26.6667 100.5L20 107.167L26.6667 113.834L40 100.5L26.6667 87.1665L20 93.8332Z" fill="#00C9FF"/>
<path d="M11 117.833L7.33328 121.5L11 125.167L7.33328 128.833L0 121.5L7.33328 114.167L11 117.833Z" fill="#00C9FF"/>
<path d="M11 117.833L14.6667 121.5L11 125.167L14.6667 128.833L22 121.5L14.6667 114.167L11 117.833Z" fill="#00C9FF"/>
</g>
<defs>
<clipPath id="clip0_1022_9557">
<rect width="80" height="129" fill="white"/>
</clipPath>
</defs>
</svg>
